<?xml version="1.0" encoding="UTF-8"?>
<svg width="208px" height="111px" viewBox="0 0 208 111" version="1.1" xmlns="http://www.w3.org/2000/svg" xmlns:xlink="http://www.w3.org/1999/xlink">
    <title>AI_Symbol/Yellow</title>
    <g id="Page-1" stroke="none" stroke-width="1" fill="none" fill-rule="evenodd">
        <g id="Index_1920" transform="translate(-909.000000, -498.000000)" fill="#FAE100">
            <g id="+TOP" transform="translate(-0.000000, 0.000000)">
                <g id="AI_Symbol/Yellow" transform="translate(909.000000, 498.000000)">
                    <g id="Asset-1">
                        <polygon id="Path" fill-rule="nonzero" points="130 59.6806774 130 62 146 62 146 59.6806774 137.806519 36 137.12915 36"></polygon>
                        <path d="M152,5.30174984e-06 C132.357472,-0.00757298964 113.944195,10.5916378 104,28.0000053 C94.0565997,10.5908473 75.642819,-0.00865370898 56,5.30174984e-06 C24.9432279,5.30174984e-06 0,24.8470901 0,55.0000053 C0,86.1529123 24.9432279,111.000005 56,111.000005 C75.6432152,111.007578 94.0568697,100.407154 104,83.0000053 C113.943528,100.406759 132.35693,111.007038 152,111.000005 C183.056772,111.000005 208,86.1503018 208,55.0000053 C208,24.8497007 183.056772,5.30174984e-06 152,5.30174984e-06 Z M52,26 L59,26 L59,52 L52,52 L52,26 Z M52,59 L26,59 L26,52 L52,52 L52,59 Z M59,85 L52,85 L52,59 L59,59 L59,85 Z M85,59 L59,59 L59,52 L85,52 L85,59 Z M152,80 L145,80 L145,69 L130,69 L130,80 L123,80 L123,58 L132,29 L143,29 L152,58 L152,80 Z M182,36 L175,36 L175,73 L182,73 L182,80 L160,80 L160,73 L167,73 L167,36 L160,36 L160,29 L182,29 L182,36 Z" id="Shape" fill-rule="nonzero"></path>
                    </g>
                </g>
            </g>
        </g>
    </g>
</svg>